<svg xmlns="http://www.w3.org/2000/svg" viewBox="0 0 128 128" role="img" aria-label="JARVIS">
  <defs>
    <linearGradient id="jarvisCore" x1="24" x2="104" y1="18" y2="110" gradientUnits="userSpaceOnUse">
      <stop stop-color="#9CC9FF"/>
      <stop offset="0.52" stop-color="#75D3B5"/>
      <stop offset="1" stop-color="#F7C86A"/>
    </linearGradient>
  </defs>
  <rect width="128" height="128" rx="28" fill="#101317"/>
  <path d="M64 16 106 40v48l-42 24-42-24V40l42-24Z" fill="#15191F" stroke="url(#jarvisCore)" stroke-width="6"/>
  <path d="M42 48h44v22c0 12.15-9.85 22-22 22S42 82.15 42 70V48Z" fill="#202630" stroke="#303846" stroke-width="4"/>
  <path d="M50 60h28c0 8.84-7.16 16-16 16H50V60Z" fill="url(#jarvisCore)"/>
  <circle cx="84" cy="60" r="7" fill="#9CC9FF"/>
  <path d="M64 30v14M34 40l12 8M94 48l12-8M64 98v-8" stroke="#75D3B5" stroke-width="5" stroke-linecap="round"/>
</svg>
